<svg transform="scale(1)" xmlns="http://www.w3.org/2000/svg" viewBox="0 0 100 100" id="jKVSAThPJ5" class="pbimage_pbimage__wrapper__image__0LEis false"><title>Id Card</title><defs><style> .cls-1, .cls-7{fill:#f2f2f2;} .cls-2, .cls-6{fill:#13183f;} .cls-2, .cls-7{opacity:0.15;} .cls-3{fill:#0099f5;} .cls-4{fill:#f0457d;} .cls-5{fill:#9c5631;} .cls-8{fill:#ffd44d;}
 .cls-2, .cls-6{fill:#13183F;}
 .cls-1, .cls-7{fill:#F2F2F2;}
 .cls-8{fill:#FFD44D;}
 .cls-5{fill:#9C5631;}
 .cls-4{fill:#F0457D;}
 .cls-3{fill:#0099F5;}</style></defs><g id="_0431_Id_Card" data-name="0431_Id_Card"><g id="Layer_1" data-name="Layer 1"><rect class="cls-1" x="1.19" y="20.24" width="97.62" height="69.29" rx="0.66"></rect><path class="cls-2" d="M98.05,20.24H89.7V79.91a.75.75,0,0,1-.75.76H1.19v8.09a.76.76,0,0,0,.75.77H98.05a.76.76,0,0,0,.76-.76V21A.75.75,0,0,0,98.05,20.24Z"></path><rect class="cls-3" x="10.23" y="35.25" width="38.34" height="42.6" rx="2.59"></rect><path class="cls-4" d="M45.49,76.32V78H13.37c-.79-7.58,6.28-12.2,13.19-12.18,3.58,0,8.59-.36,11.87,1.23C42.21,68.57,45.52,72.07,45.49,76.32Z"></path><path class="cls-2" d="M45.49,76.32c0-4.25-3.28-7.75-7.06-9.28-3.28-1.59-8.29-1.19-11.87-1.23a15.78,15.78,0,0,0-6.25,1.28c.52,0,1.05-.08,1.58-.08,3.57,0,8.58-.36,11.87,1.23,3.77,1.54,7.08,5,7.05,9.28V78h4.68Z"></path><polygon class="cls-1" points="26.05 67.83 32.8 67.83 29.4 76.13 26.05 67.83"></polygon><path class="cls-2" d="M32.81,67.83a3.57,3.57,0,0,1-6.76,0A4.41,4.41,0,0,0,32.81,67.83Z"></path><path class="cls-5" d="M29.46,70.06a3.28,3.28,0,0,1-3.55-3.21V57.08c.08-4.67,7-4.67,7.1,0V66.7A3.39,3.39,0,0,1,29.46,70.06Z"></path><path class="cls-5" d="M22.4,55.08a1.73,1.73,0,0,0-2-1.4l-.08,0c-1.1.24-1.1,1.26-.93,2.1a16.57,16.57,0,0,0,.86,2.8c.32.48.78,1.39,1.55,1.13.51-.17.81-1.08.93-1.74A14.36,14.36,0,0,0,22.4,55.08Z"></path><path class="cls-5" d="M36.37,55.05a1.72,1.72,0,0,1,2-1.4l.09,0c1.1.24,1.2,1.29,1,2.13,0,.05-.6,2.15-.87,2.8s-.84,1.47-1.64,1.15c-.5-.21-.83-1.13-.95-1.79A14.21,14.21,0,0,1,36.37,55.05Z"></path><path class="cls-5" d="M37.44,48.76c0-3.65-2.26-7.31-8.24-7.31s-8.15,4-8.15,7.65c0,.19,0,10.12,1.14,12.39s4.35,4.61,7.21,4.61a8.28,8.28,0,0,0,7.24-4.61C38,58.87,37.44,48.76,37.44,48.76Z"></path><path class="cls-1" d="M36.37,62a.21.21,0,0,0,0-.06l-.2.14Z"></path><path class="cls-2" d="M30.76,65.34c-2.86,0-6.06-2.34-7.22-4.62S22.4,48.52,22.4,48.33a7.93,7.93,0,0,1,1.47-4.71,6.87,6.87,0,0,1,.38-.88,7.39,7.39,0,0,0-3.2,6.36c0,.19,0,10.12,1.14,12.39s4.35,4.61,7.21,4.61a7.75,7.75,0,0,0,4.42-1.42A7.69,7.69,0,0,1,30.76,65.34Z"></path><path class="cls-6" d="M31.17,40.17a9.23,9.23,0,0,1,7.09,6c.93,3.72-.42,8.95-.42,8.95l-.27,1.49h-.32a15,15,0,0,0-.5-6.61c-1.58-4.64-7.21-4.29-7.21-4.29C24.2,45.75,22.63,49,22.63,49c-1.88,2.13-1.36,7.53-1.36,7.53H21l-.26-1.46A26.51,26.51,0,0,1,20,48.64c-.24-6.66,6.3-8.33,6.3-8.33A29.26,29.26,0,0,1,31.17,40.17Z"></path><path class="cls-6" d="M34.26,39.71c0,1.67-2.13,3-4.75,3s-4.76-1.35-4.76-3,2.13-3,4.76-3S34.26,38.05,34.26,39.71Z"></path><path class="cls-7" d="M26.3,41.53a29.87,29.87,0,0,1,4.87-.16,9.25,9.25,0,0,1,7.09,6,12,12,0,0,1,.31,2.46,13.74,13.74,0,0,0-.31-3.67,9.23,9.23,0,0,0-7.09-6,30.14,30.14,0,0,0-4.87.15S19.76,42,20,48.65v.5C20.23,43.08,26.3,41.53,26.3,41.53Z"></path><path class="cls-1" d="M21.46,59.38a.57.57,0,0,1-.57.56.57.57,0,0,1-.56-.57.56.56,0,0,1,.56-.56.57.57,0,0,1,.57.56Z"></path><path class="cls-1" d="M21.41,59.57a.45.45,0,0,1-.63,0,.46.46,0,0,1-.13-.33h0a.4.4,0,0,1,.13-.31.42.42,0,0,1,.18-.11h-.07a.56.56,0,1,0,.54.72Z"></path><path class="cls-1" d="M38.33,59.38a.56.56,0,1,1-.56-.56h0A.56.56,0,0,1,38.33,59.38Z"></path><path class="cls-1" d="M38.29,59.57a.45.45,0,0,1-.63,0,.46.46,0,0,1-.13-.33h0a.44.44,0,0,1,.13-.31.42.42,0,0,1,.18-.11h-.07a.56.56,0,1,0,.54.72Z"></path><path class="cls-6" d="M84.8,60h1.46a.77.77,0,0,1,.78.77.78.78,0,0,1-.78.78H84.8a.78.78,0,0,1-.78-.78A.77.77,0,0,1,84.8,60Z"></path><path class="cls-6" d="M79.91,60a.78.78,0,0,1,.78.76.79.79,0,0,1-.77.79l-22.8,0h0a.78.78,0,1,1,0-1.55l22.8,0Z"></path><path class="cls-6" d="M56.78,53.63H85.94a.78.78,0,0,1,0,1.55H56.78a.78.78,0,0,1,0-1.55Z"></path><path class="cls-6" d="M56.78,47.25H85.94a.78.78,0,0,1,0,1.55H56.78a.78.78,0,0,1,0-1.55Z"></path><rect class="cls-6" x="34.49" y="23.22" width="31.03" height="6.81" rx="3.4"></rect><path class="cls-8" d="M46.26,10.47h7.48A1.52,1.52,0,0,1,55.26,12V30H44.74V12a1.52,1.52,0,0,1,1.52-1.51Z"></path></g></g></svg>