<svg transform="scale(1)" xmlns="http://www.w3.org/2000/svg" viewBox="0 0 100 100" id="ywyozMUm8D" class="pbimage_pbimage__wrapper__image__0LEis false"><title>Deadline 1</title><defs><style> .cls-1{fill:#f2f2f2;} .cls-2, .cls-4{fill:#13183f;} .cls-2, .cls-6{opacity:0.15;} .cls-3{fill:#0099f5;} .cls-5{fill:#ffd44d;} .cls-6, .cls-7{fill:#f0457d;}
 .cls-6, .cls-7{fill:#F0457D;}
 .cls-2, .cls-4{fill:#13183F;}
 .cls-5{fill:#FFD44D;}
 .cls-3{fill:#0099F5;}
 .cls-1{fill:#F2F2F2;}</style></defs><g id="_0957_Deadline_1" data-name="0957_Deadline_1"><path class="cls-1" d="M89.45,32.35V83.49a.5.5,0,0,1-.5.5H11a.5.5,0,0,1-.5-.5V32.35Z" fill="#F2F2F2"></path><path class="cls-2" d="M10.54,32.35V38.6H85.3V84H89a.5.5,0,0,0,.5-.5h0V32.35Z"></path><rect class="cls-3" x="31.08" y="41.56" width="9.75" height="9.75" rx="0.61" fill="#0099F5"></rect><rect class="cls-3" x="44.89" y="41.56" width="9.75" height="9.75" rx="0.61" fill="#0099F5"></rect><rect class="cls-3" x="31.08" y="55.1" width="9.75" height="9.75" rx="0.61" fill="#0099F5"></rect><rect class="cls-3" x="17.27" y="55.1" width="9.75" height="9.75" rx="0.61" fill="#0099F5"></rect><rect class="cls-3" x="44.89" y="55.1" width="9.75" height="9.75" rx="0.61" fill="#0099F5"></rect><rect class="cls-3" x="31.08" y="68.64" width="9.75" height="9.75" rx="0.61" fill="#0099F5"></rect><rect class="cls-3" x="17.27" y="68.64" width="9.75" height="9.75" rx="0.61" fill="#0099F5"></rect><rect class="cls-3" x="44.89" y="68.64" width="9.75" height="9.75" rx="0.61" fill="#0099F5"></rect><rect class="cls-3" x="17.18" y="41.49" width="9.75" height="9.75" rx="0.61" fill="#0099F5"></rect><path class="cls-4" d="M89.45,20.84V35H10.54V20.84a.5.5,0,0,1,.5-.5H89a.5.5,0,0,1,.5.5Z"></path><circle class="cls-4" cx="20.47" cy="28.33" r="3.93"></circle><circle class="cls-4" cx="80.06" cy="28.33" r="3.93"></circle><path class="cls-5" d="M22.78,18.31V28.6a2.3,2.3,0,0,1-2.26,2.3h-.05a2.3,2.3,0,0,1-2.3-2.3V18.31a2.3,2.3,0,0,1,2.3-2.3h.05a2.33,2.33,0,0,1,2.26,2.3Z" fill="#FFD44D"></path><path class="cls-6" d="M20.52,16V30.9h-.05a2.3,2.3,0,0,1-2.3-2.3V18.31a2.3,2.3,0,0,1,2.3-2.3h.05Z"></path><path class="cls-5" d="M82.27,18.31V28.6A2.29,2.29,0,0,1,80,30.9h0a2.3,2.3,0,0,1-2.3-2.3V18.31A2.3,2.3,0,0,1,80,16h0A2.3,2.3,0,0,1,82.27,18.31Z" fill="#FFD44D"></path><path class="cls-6" d="M80,16V30.9h0a2.3,2.3,0,0,1-2.3-2.3V18.31A2.3,2.3,0,0,1,80,16h0Z"></path><rect class="cls-4" x="63.4" y="46.66" width="16.66" height="3.25" rx="1.09"></rect><path class="cls-5" d="M65.05,49.91H78.56v2.17a6.75,6.75,0,0,1-6.75,6.75h0a6.76,6.76,0,0,1-6.76-6.75V49.91Z" fill="#FFD44D"></path><path class="cls-7" d="M66.87,53.06h9.87A4.71,4.71,0,0,1,72,57.77h-.44a4.71,4.71,0,0,1-4.72-4.71Z"></path><rect class="cls-4" x="63.4" y="67.14" width="16.66" height="3.25" rx="1.09"></rect><path class="cls-5" d="M78.41,67.14H64.9V65a6.76,6.76,0,0,1,6.75-6.76h0A6.76,6.76,0,0,1,78.41,65v2.16Z" fill="#FFD44D"></path><path class="cls-7" d="M76.59,64H66.71a4.72,4.72,0,0,1,4.72-4.72h.45A4.72,4.72,0,0,1,76.59,64Z"></path></g></svg>