<svg transform="scale(1)" xmlns="http://www.w3.org/2000/svg" viewBox="0 0 100 100" id="ZHDCZiw8CH" class="pbimage_pbimage__wrapper__image__0LEis false"><title>Calendar 3</title><defs><style> .cls-1{fill:#0099f5;} .cls-2, .cls-6{fill:#13183f;} .cls-3{fill:#f2f2f2;} .cls-4{fill:#f0457d;} .cls-5{fill:#ffd44d;} .cls-6{opacity:0.15;}
 .cls-2, .cls-6{fill:#6F6B7D;}
 .cls-5{fill:#FFD44D;}
 .cls-4{fill:#F0457D;}
 .cls-3{fill:#F2F2F2;}
 .cls-1{fill:#0099F5;}</style></defs><g id="_0178_Calendar_3" data-name="0178_Calendar_3"><polygon class="cls-1" points="8.55 31 1.72 87.37 2.69 88.42 8.54 65.05 8.55 31" fill="#0099F5"></polygon><polygon class="cls-2" points="9.38 25.34 2.69 88.42 17.45 88.42 13.79 24.04 9.38 25.34"></polygon><polygon class="cls-1" points="13.8 24.25 13.79 24.04 9 24.47 2.69 88.42 3.4 88.42 10.08 25.34 13.8 24.25" fill="#0099F5"></polygon><path class="cls-3" d="M95.58,89.49H13.17a2.65,2.65,0,0,1-2.61-2.59l-1.28-56a2.11,2.11,0,0,1,2-2.19H94.19a2.23,2.23,0,0,1,2.21,2.19l1.29,56.38a2.11,2.11,0,0,1-2,2.18Z" fill="#F2F2F2"></path><path class="cls-3" d="M96.17,89.53H13.76a2.65,2.65,0,0,1-2.61-2.59L9.87,31a2.1,2.1,0,0,1,2-2.19H94.78A2.25,2.25,0,0,1,97,31l1.29,56.38a2.11,2.11,0,0,1-2,2.19Z" fill="#F2F2F2"></path><path class="cls-3" d="M90.67,20.29H13.75A4.68,4.68,0,0,0,9,25.34l.52,7.49H96.65l-.52-7.49A5.52,5.52,0,0,0,90.67,20.29Z" fill="#F2F2F2"></path><path class="cls-2" d="M91.07,20.29H14.14a4.68,4.68,0,0,0-4.76,5.05l.52,7.49H97l-.51-7.49A5.52,5.52,0,0,0,91.07,20.29Z"></path><path class="cls-4" d="M20.61,46.61H15.05a1.53,1.53,0,0,1-1.49-1.49l-.19-5.73a1.4,1.4,0,0,1,1.33-1.48h5.63a1.53,1.53,0,0,1,1.49,1.49L22,45.12a1.41,1.41,0,0,1-1.33,1.49Z" fill="#F0457D"></path><path class="cls-1" d="M32.6,46.61H27a1.54,1.54,0,0,1-1.5-1.49l-.18-5.73a1.4,1.4,0,0,1,1.33-1.48h5.62a1.54,1.54,0,0,1,1.5,1.49L34,45.12a1.42,1.42,0,0,1-1.33,1.49Z" fill="#0099F5"></path><path class="cls-1" d="M44.59,46.61H39a1.53,1.53,0,0,1-1.5-1.49l-.19-5.73a1.41,1.41,0,0,1,1.33-1.48H44.3a1.53,1.53,0,0,1,1.49,1.49L46,45.12a1.4,1.4,0,0,1-1.33,1.49Z" fill="#0099F5"></path><path class="cls-1" d="M56.57,46.61H51a1.53,1.53,0,0,1-1.49-1.49l-.19-5.73a1.4,1.4,0,0,1,1.33-1.48h5.63a1.53,1.53,0,0,1,1.49,1.49L58,45.12a1.41,1.41,0,0,1-1.33,1.49Z" fill="#0099F5"></path><path class="cls-1" d="M68.56,46.61H63a1.53,1.53,0,0,1-1.49-1.49l-.19-5.73a1.4,1.4,0,0,1,1.33-1.48h5.63a1.54,1.54,0,0,1,1.5,1.49L70,45.12a1.42,1.42,0,0,1-1.33,1.49Z" fill="#0099F5"></path><path class="cls-1" d="M80.55,46.61H75a1.54,1.54,0,0,1-1.5-1.49l-.18-5.73a1.4,1.4,0,0,1,1.33-1.48h5.62a1.54,1.54,0,0,1,1.5,1.49l.18,5.73a1.4,1.4,0,0,1-1.33,1.49Z" fill="#0099F5"></path><path class="cls-4" d="M92.54,46.61H87a1.53,1.53,0,0,1-1.5-1.49l-.19-5.73a1.41,1.41,0,0,1,1.33-1.48h5.63a1.53,1.53,0,0,1,1.49,1.49l.19,5.73a1.41,1.41,0,0,1-1.33,1.49Z" fill="#F0457D"></path><path class="cls-4" d="M21,59.72H15.48A1.53,1.53,0,0,1,14,58.23L13.8,52.5A1.41,1.41,0,0,1,15.13,51h5.63a1.53,1.53,0,0,1,1.49,1.49l.19,5.73a1.4,1.4,0,0,1-1.33,1.48Z" fill="#F0457D"></path><path class="cls-1" d="M33,59.72H27.47A1.53,1.53,0,0,1,26,58.23l-.19-5.73A1.41,1.41,0,0,1,27.12,51h5.62a1.53,1.53,0,0,1,1.5,1.49l.19,5.73a1.41,1.41,0,0,1-1.33,1.48Z" fill="#0099F5"></path><path class="cls-1" d="M45,59.72H39.46A1.54,1.54,0,0,1,38,58.23l-.18-5.73A1.4,1.4,0,0,1,39.11,51h5.62a1.53,1.53,0,0,1,1.5,1.49l.18,5.73a1.4,1.4,0,0,1-1.33,1.48Z" fill="#0099F5"></path><path class="cls-1" d="M57,59.72H51.45A1.54,1.54,0,0,1,50,58.23l-.19-5.73A1.42,1.42,0,0,1,51.09,51h5.63a1.53,1.53,0,0,1,1.49,1.49l.19,5.73a1.4,1.4,0,0,1-1.33,1.48Z" fill="#0099F5"></path><path class="cls-1" d="M69,59.72H63.43a1.53,1.53,0,0,1-1.49-1.49l-.19-5.73A1.41,1.41,0,0,1,63.08,51h5.63A1.53,1.53,0,0,1,70.2,52.5l.19,5.73a1.4,1.4,0,0,1-1.33,1.48Z" fill="#0099F5"></path><path class="cls-1" d="M81,59.72H75.42a1.53,1.53,0,0,1-1.49-1.49l-.19-5.73A1.4,1.4,0,0,1,75.07,51h5.62a1.53,1.53,0,0,1,1.5,1.49l.19,5.73a1.41,1.41,0,0,1-1.33,1.48Z" fill="#0099F5"></path><path class="cls-4" d="M93,59.72H87.41a1.54,1.54,0,0,1-1.5-1.49l-.19-5.73A1.42,1.42,0,0,1,87.05,51h5.63a1.54,1.54,0,0,1,1.5,1.49l.18,5.73A1.4,1.4,0,0,1,93,59.71Z" fill="#F0457D"></path><path class="cls-4" d="M21.48,72.82H15.92a1.53,1.53,0,0,1-1.49-1.49l-.19-5.73a1.42,1.42,0,0,1,1.33-1.49H21.2a1.53,1.53,0,0,1,1.49,1.49l.19,5.73a1.42,1.42,0,0,1-1.33,1.49Z" fill="#F0457D"></path><path class="cls-1" d="M33.46,72.82H27.9a1.53,1.53,0,0,1-1.49-1.49l-.19-5.73a1.42,1.42,0,0,1,1.33-1.49h5.63a1.53,1.53,0,0,1,1.49,1.49l.19,5.73a1.42,1.42,0,0,1-1.33,1.49Z" fill="#0099F5"></path><path class="cls-1" d="M45.45,72.82H39.89a1.52,1.52,0,0,1-1.49-1.49l-.19-5.73a1.41,1.41,0,0,1,1.33-1.49h5.62a1.53,1.53,0,0,1,1.5,1.49l.19,5.73a1.42,1.42,0,0,1-1.33,1.49Z" fill="#0099F5"></path><path class="cls-1" d="M57.44,72.82H51.88a1.53,1.53,0,0,1-1.5-1.49l-.19-5.73a1.42,1.42,0,0,1,1.33-1.49h5.63a1.53,1.53,0,0,1,1.5,1.49l.18,5.73a1.41,1.41,0,0,1-1.33,1.49Z" fill="#0099F5"></path><path class="cls-1" d="M69.43,72.82H63.86a1.53,1.53,0,0,1-1.49-1.49l-.19-5.73a1.42,1.42,0,0,1,1.33-1.49h5.62a1.53,1.53,0,0,1,1.5,1.49l.19,5.73a1.42,1.42,0,0,1-1.33,1.49Z" fill="#0099F5"></path><path class="cls-1" d="M81.41,72.82H75.85a1.53,1.53,0,0,1-1.49-1.49l-.19-5.73a1.42,1.42,0,0,1,1.33-1.49h5.63a1.53,1.53,0,0,1,1.49,1.49l.19,5.73a1.42,1.42,0,0,1-1.33,1.49Z" fill="#0099F5"></path><path class="cls-4" d="M93.4,72.82H87.84a1.52,1.52,0,0,1-1.49-1.49l-.19-5.73a1.41,1.41,0,0,1,1.33-1.49h5.62a1.53,1.53,0,0,1,1.5,1.49l.19,5.73a1.42,1.42,0,0,1-1.33,1.49Z" fill="#F0457D"></path><path class="cls-4" d="M21.91,85.92H16.35a1.52,1.52,0,0,1-1.5-1.48l-.19-5.74A1.41,1.41,0,0,1,16,77.22h5.63a1.53,1.53,0,0,1,1.5,1.48l.18,5.74A1.4,1.4,0,0,1,22,85.92Z" fill="#F0457D"></path><path class="cls-1" d="M33.89,85.92H28.33a1.52,1.52,0,0,1-1.49-1.48l-.19-5.74A1.41,1.41,0,0,1,28,77.22h5.63A1.52,1.52,0,0,1,35.1,78.7l.19,5.74A1.41,1.41,0,0,1,34,85.92Z" fill="#0099F5"></path><path class="cls-1" d="M45.88,85.92H40.32a1.52,1.52,0,0,1-1.49-1.48l-.19-5.74A1.41,1.41,0,0,1,40,77.22H45.6a1.52,1.52,0,0,1,1.49,1.48l.19,5.74A1.41,1.41,0,0,1,46,85.92Z" fill="#0099F5"></path><path class="cls-1" d="M57.88,85.92H52.31a1.51,1.51,0,0,1-1.49-1.48l-.19-5.74A1.4,1.4,0,0,1,52,77.22h5.62a1.52,1.52,0,0,1,1.5,1.48l.19,5.74a1.41,1.41,0,0,1-1.33,1.48Z" fill="#0099F5"></path><path class="cls-1" d="M69.86,85.92H64.3a1.52,1.52,0,0,1-1.5-1.48l-.19-5.74a1.41,1.41,0,0,1,1.33-1.48h5.63a1.51,1.51,0,0,1,1.49,1.48l.19,5.74a1.4,1.4,0,0,1-1.32,1.48Z" fill="#0099F5"></path><ellipse class="cls-2" cx="86.07" cy="23.14" rx="1.39" ry="1.66"></ellipse><path class="cls-2" d="M86.07,21.48a1.41,1.41,0,0,0-.41.07,1.77,1.77,0,0,1,0,3.17,1.14,1.14,0,0,0,.41.07,1.54,1.54,0,0,0,1.39-1.65A1.54,1.54,0,0,0,86.07,21.48Z"></path><path class="cls-5" d="M80.2,10.46c-4,0-7.33,3.6-7.33,8a8.4,8.4,0,0,0,.19,1.8h1.12a7.31,7.31,0,0,1-.2-1.8c0-3.82,2.79-6.93,6.22-6.93s6.23,3.11,6.23,6.93a7.29,7.29,0,0,1-1.89,5,.54.54,0,0,0,0,.77h0a.54.54,0,0,0,.75,0,8.38,8.38,0,0,0,2.19-5.71C87.52,14.06,84.24,10.46,80.2,10.46Z" fill="#FFD44D"></path><path class="cls-2" d="M84.69,23.19a2.06,2.06,0,0,0,.74,1.41c.67.46-.93.71-1,.63s-.81-.56-.83-1a2.1,2.1,0,0,1,.16-.93c0-.07.23-.44.29-.44A6.15,6.15,0,0,1,84.69,23.19Z"></path><ellipse class="cls-2" cx="67.25" cy="23.14" rx="1.39" ry="1.66"></ellipse><path class="cls-2" d="M67.25,21.48a1.41,1.41,0,0,0-.41.07,1.77,1.77,0,0,1,0,3.17,1.14,1.14,0,0,0,.41.07,1.54,1.54,0,0,0,1.39-1.65A1.55,1.55,0,0,0,67.25,21.48Z"></path><path class="cls-5" d="M61.37,10.46c-4,0-7.32,3.6-7.32,8a9.08,9.08,0,0,0,.18,1.8h1.13a7.85,7.85,0,0,1-.22-1.8c0-3.82,2.8-6.93,6.23-6.93s6.23,3.11,6.23,6.93a7.25,7.25,0,0,1-1.9,5,.55.55,0,0,0,0,.77h0a.54.54,0,0,0,.75,0,8.39,8.39,0,0,0,2.2-5.71C68.7,14.06,65.41,10.46,61.37,10.46Z" fill="#FFD44D"></path><path class="cls-2" d="M65.86,23.19a2.08,2.08,0,0,0,.73,1.41c.67.46-.92.71-1,.63s-.82-.56-.84-1a2.25,2.25,0,0,1,.16-.93c0-.07.23-.44.29-.44A6.15,6.15,0,0,1,65.86,23.19Z"></path><path class="cls-2" d="M49.81,23.14a1.41,1.41,0,1,1-2.77,0,1.41,1.41,0,1,1,2.77,0Z"></path><path class="cls-2" d="M48.42,21.48a1.47,1.47,0,0,0-.41.07,1.77,1.77,0,0,1,0,3.17,1.18,1.18,0,0,0,.41.07,1.54,1.54,0,0,0,1.39-1.65A1.54,1.54,0,0,0,48.42,21.48Z"></path><path class="cls-5" d="M42.55,10.46c-4,0-7.33,3.6-7.33,8a9.09,9.09,0,0,0,.19,1.8h1.13a7.33,7.33,0,0,1-.22-1.8c0-3.82,2.79-6.93,6.23-6.93s6.23,3.11,6.23,6.93a7.3,7.3,0,0,1-1.9,5,.55.55,0,0,0,0,.77h0a.54.54,0,0,0,.75,0,8.4,8.4,0,0,0,2.21-5.71C49.88,14.06,46.59,10.46,42.55,10.46Z" fill="#FFD44D"></path><path class="cls-2" d="M47,23.19a2.06,2.06,0,0,0,.74,1.41c.67.46-.93.71-1,.63s-.82-.56-.84-1a2.25,2.25,0,0,1,.16-.93c0-.07.23-.44.29-.44A5.32,5.32,0,0,1,47,23.19Z"></path><ellipse class="cls-2" cx="29.6" cy="23.14" rx="1.39" ry="1.66"></ellipse><path class="cls-2" d="M29.6,21.48a1.41,1.41,0,0,0-.41.07,1.77,1.77,0,0,1,0,3.17,1.14,1.14,0,0,0,.41.07A1.54,1.54,0,0,0,31,23.14,1.54,1.54,0,0,0,29.6,21.48Z"></path><path class="cls-5" d="M23.73,10.46c-4.05,0-7.33,3.6-7.33,8a8.4,8.4,0,0,0,.19,1.8h1.12a7.31,7.31,0,0,1-.2-1.8c0-3.82,2.79-6.93,6.23-6.93S30,14.67,30,18.49a7.29,7.29,0,0,1-1.89,5,.54.54,0,0,0,0,.77h0a.54.54,0,0,0,.75,0,8.38,8.38,0,0,0,2.19-5.71C31.05,14.06,27.77,10.46,23.73,10.46Z" fill="#FFD44D"></path><path class="cls-2" d="M28.21,23.19A2.06,2.06,0,0,0,29,24.6c.67.46-.93.71-1,.63s-.82-.56-.84-1a2.43,2.43,0,0,1,.16-.93c0-.07.24-.44.29-.44A5.32,5.32,0,0,1,28.21,23.19Z"></path><path class="cls-6" d="M98.2,87.34l-.09-3.82-4.17.81L81.45,85.78s-12,3.5-12,3.5L68,89.54H96.09a2.13,2.13,0,0,0,2.11-2.13Z"></path><path class="cls-1" d="M68,89.53s9.92-2.17,17.76-15.76c0,0,3.85,10.48,12.39,9.75C98.11,83.52,86.66,88.85,68,89.53Z" fill="#0099F5"></path></g></svg>