<svg transform="scale(1)" xmlns="http://www.w3.org/2000/svg" viewBox="0 0 100 100" id="tQAfULLD48" class="pbimage_pbimage__wrapper__image__0LEis false"><title>Dictionary</title><defs><style> .cls-1, .cls-3{fill:#f0457d;} .cls-2{fill:#ffd44d;} .cls-3, .cls-6{opacity:0.15;} .cls-4{fill:#f2f2f2;} .cls-5{fill:#0099f5;} .cls-6{fill:#13183f;}
 .cls-1, .cls-3{fill:#F0457D;}
 .cls-6{fill:#13183F;}
 .cls-5{fill:#FFB400;}
 .cls-4{fill:#F2F2F2;}
 .cls-2{fill:#16B1FF;}</style></defs><g id="_0808_Dictionary" data-name="0808_Dictionary"><path class="cls-1" d="M20.51,84.91h8.24l0,8.17a.47.47,0,0,1-.47.47.48.48,0,0,1-.27-.09L24.63,91,21.3,93.46a.47.47,0,0,1-.74-.38Z"></path><path class="cls-1" d="M20.56,92.58v.5a.46.46,0,0,0,.75.37l3.22-2.34-1-.71Z"></path><path class="cls-1" d="M27.66,84.91l0,7.54a.46.46,0,0,1-.41.46l.75.54a.47.47,0,0,0,.66-.1.53.53,0,0,0,.08-.27l0-8.17Z"></path><rect class="cls-2" x="13.75" y="6.45" width="59.81" height="81.72" rx="2.99" fill="#16B1FF"></rect><path class="cls-3" d="M70.31,6.45H66.55V76.38a3.24,3.24,0,0,1-3.24,3.26H13.75v5.29A3.26,3.26,0,0,0,17,88.18h53.3a3.25,3.25,0,0,0,3.25-3.25h0V9.71a3.25,3.25,0,0,0-3.25-3.26Z"></path><rect class="cls-4" x="28.03" y="26.18" width="31.4" height="15.3" rx="0.6" fill="#F2F2F2"></rect><path class="cls-4" d="M58.83,26.18H56.61V38.06a.6.6,0,0,1-.6.6H28v2.21a.6.6,0,0,0,.6.61h30.2a.6.6,0,0,0,.6-.61V26.78A.6.6,0,0,0,58.83,26.18Z" fill="#F2F2F2"></path><path class="cls-5" d="M82.61,33h-33A3.62,3.62,0,0,0,46,36.65V59.76a3.62,3.62,0,0,0,3.62,3.62h8.64l3,4.65a.47.47,0,0,0,.66.14.37.37,0,0,0,.13-.12l3.36-4.67H82.61a3.63,3.63,0,0,0,3.63-3.62V36.65A3.63,3.63,0,0,0,82.61,33Z" fill="#FFB400"></path><path class="cls-6" d="M47.57,61.21A3.52,3.52,0,0,1,46.25,61a3.62,3.62,0,0,0,3.42,2.42h8.62l-1.41-2.17Z" fill="#13183F"></path><path class="cls-6" d="M84,33.28a3.34,3.34,0,0,1,.2,1.21v23.1a3.63,3.63,0,0,1-3.62,3.63H63.38L60,65.88l-.06.06L61.32,68a.46.46,0,0,0,.65.14.3.3,0,0,0,.13-.12l3.37-4.67H82.63a3.62,3.62,0,0,0,3.62-3.62V36.65A3.62,3.62,0,0,0,84,33.28Z" fill="#13183F"></path><path class="cls-4" d="M62.72,51.35H57.53l-1,2.4h-2l4.66-10.37h1.9l4.68,10.37h-2Zm-.64-1.51-2-4.54-1.94,4.54Z" fill="#F2F2F2"></path><path class="cls-4" d="M77.73,52.12v1.63H68.87V52.47L75,45H69V43.38h8.56v1.29l-6.11,7.45Z" fill="#F2F2F2"></path></g></svg>