<svg transform="scale(1)" xmlns="http://www.w3.org/2000/svg" viewBox="0 0 100 100" id="UAT5uEULyF" class="pbimage_pbimage__wrapper__image__0LEis false"><title>Coaching</title><defs><style> .cls-1{fill:#ffd44d;} .cls-2{fill:#f0457d;} .cls-3{opacity:0.15;} .cls-4{fill:#13183f;} .cls-5{fill:#f2f2f2;} .cls-6{fill:#9c5631;} .cls-7{opacity:0.1;} .cls-8{fill:#ffbeb3;} .cls-9{fill:#0099f5;} .cls-10{opacity:0.09;isolation:isolate;}
 .cls-9{fill:#9155fd;}
 .cls-8{fill:#FFBEB3;}
 .cls-6{fill:#9C5631;}
 .cls-5{fill:#F2F2F2;}
 .cls-4{fill:#13183F;}
 .cls-2{fill:#F0457D;}
 .cls-1{fill:#FFD44D;}</style></defs><g id="_0004_Coaching" data-name="0004_Coaching"><g id="Layer_1" data-name="Layer 1"><path class="cls-1" d="M33.73,73.6l-10.81-10a1,1,0,0,0-1.35,0l-10.82,10a1,1,0,0,0,.67,1.72h6.69a23.84,23.84,0,0,0,13,21.31,1,1,0,0,0,1.25-1.48c-2.62-3.45-5.73-9.63-6.18-19.83h6.85a1,1,0,0,0,.68-1.72Z"></path><path class="cls-1" d="M66.39,23.61l10.82,10a1,1,0,0,0,1.35,0l10.82-10a1,1,0,0,0-.67-1.72H82A23.79,23.79,0,0,0,69,.58a1,1,0,0,0-1.25,1.48c2.62,3.45,5.73,9.63,6.18,19.83H67.07a1,1,0,0,0-.68,1.72Z"></path><path class="cls-2" d="M94.21,97.57v2H56.09c-.94-9,7.45-14.48,15.66-14.46,4.24,0,10.18-.43,14.09,1.46C90.32,88.37,94.24,92.52,94.21,97.57Z"></path><g class="cls-3"><path class="cls-4" d="M94.21,97.57c0-5-3.89-9.2-8.37-11-3.9-1.89-9.85-1.41-14.09-1.46a18.78,18.78,0,0,0-7.43,1.52c.62-.06,1.25-.09,1.88-.09,4.23,0,10.18-.43,14.09,1.45,4.47,1.83,8.41,6,8.37,11v.56h5.55Z"></path></g><polygon class="cls-5" points="71.14 87.49 79.16 87.5 75.11 97.34 71.14 87.49"></polygon><path class="cls-6" d="M75.18,90.13c-2.32,0-4.18-2.19-4.2-3.21V74.73c.09-5.54,8.32-5.54,8.41,0V86.92a5.13,5.13,0,0,1-4.21,3.21Z"></path><path class="cls-6" d="M66.8,72.36a2,2,0,0,0-2.35-1.66l-.1,0c-1.3.29-1.31,1.5-1.11,2.5a19.9,19.9,0,0,0,1,3.32c.38.57.92,1.65,1.84,1.34.61-.2,1-1.28,1.11-2.06A17,17,0,0,0,66.8,72.36Z"></path><path class="cls-6" d="M83.39,72.32a2,2,0,0,1,2.36-1.66l.09,0c1.3.28,1.43,1.53,1.23,2.53,0,.05-.7,2.55-1,3.32s-1,1.75-1.94,1.36c-.59-.24-1-1.33-1.13-2.11A16.87,16.87,0,0,1,83.39,72.32Z"></path><path class="cls-6" d="M84.66,64.85c0-4.33-2.68-8.67-9.79-8.67s-9.68,4.75-9.68,9.08c0,.22,0,12,1.36,14.7s5.18,5.47,8.56,5.48A9.83,9.83,0,0,0,83.71,80C85.27,76.85,84.66,64.85,84.66,64.85Z"></path><g class="cls-3"><path class="cls-4" d="M76.72,84.53c-3.39,0-7.18-2.77-8.56-5.47S66.8,64.58,66.8,64.35a9.48,9.48,0,0,1,1.75-5.59,8.81,8.81,0,0,1,.45-1,8.75,8.75,0,0,0-3.81,7.54c0,.22,0,12,1.36,14.71s5.17,5.46,8.56,5.47a9.17,9.17,0,0,0,5.26-1.69A9,9,0,0,1,76.72,84.53Z"></path></g><path class="cls-4" d="M77.21,54.66a11,11,0,0,1,8.42,7.09c1.11,4.41-.5,10.62-.5,10.62l-.32,1.77h-.37c.78-3.43-.6-7.85-.6-7.85-1.87-5.5-8.55-5.1-8.55-5.1-6.35.09-8.22,4-8.22,4-2.22,2.53-1.6,8.94-1.6,8.94h-.31l-.31-1.73A32,32,0,0,1,64,64.73c-.28-7.9,7.48-9.88,7.48-9.88A34.39,34.39,0,0,1,77.21,54.66Z"></path><path class="cls-4" d="M80.88,54.12c0,2-2.52,3.58-5.64,3.58s-5.64-1.6-5.64-3.58,2.52-3.58,5.64-3.58S80.88,52.15,80.88,54.12Z"></path><g class="cls-7"><path class="cls-8" d="M71.44,56.27a35.78,35.78,0,0,1,5.77-.18,11,11,0,0,1,8.42,7.09A14.42,14.42,0,0,1,86,66.1a16.29,16.29,0,0,0-.38-4.35,11,11,0,0,0-8.42-7.09,34.64,34.64,0,0,0-5.77.18s-7.76,2-7.48,9.89v.59C64.24,58.11,71.44,56.27,71.44,56.27Z"></path></g><path class="cls-5" d="M65.68,77.46a.66.66,0,1,1-1.32,0,.66.66,0,1,1,1.32,0Z"></path><path class="cls-5" d="M85.72,77.46a.66.66,0,0,1-.66.67.67.67,0,0,1-.67-.67.66.66,0,0,1,.67-.66A.65.65,0,0,1,85.72,77.46Z"></path></g><path class="cls-9" d="M44,48v2H5.87c-.94-9,7.45-14.47,15.66-14.45,4.24,0,10.19-.43,14.09,1.45C40.1,38.79,44,42.94,44,48Z" fill="#9155fd"></path><g class="cls-3"><path class="cls-4" d="M44,48c0-5.05-3.9-9.2-8.38-11-3.9-1.88-9.85-1.41-14.09-1.45A18.8,18.8,0,0,0,14.1,37c.63-.06,1.25-.09,1.88-.09,4.24,0,10.19-.43,14.09,1.46,4.48,1.82,8.41,6,8.37,11V50H44Z"></path></g><g class="cls-10"><path class="cls-4" d="M24.54,42l-3.81,2.31a.45.45,0,0,1-.62-.15h0L16,37.05a.47.47,0,0,1,.16-.62h0l3.78-2a.45.45,0,0,1,.6.17l4.14,6.73a.47.47,0,0,1-.14.63Z"></path></g><g class="cls-10"><path class="cls-4" d="M25.33,42l3.81,2.31a.45.45,0,0,0,.62-.15h0l4.11-7.06a.45.45,0,0,0-.16-.62l0,0-3.79-2a.45.45,0,0,0-.6.17l-4.14,6.73a.46.46,0,0,0,.15.63Z"></path></g><path class="cls-4" d="M28.47,41.47l-3.54-1.29h0L21.4,41.47l2.44,4.31L22.93,50h4L26,45.78Z" fill="#13183F"></path><path class="cls-8" d="M24.93,40.84a4.22,4.22,0,0,1-4.21-4.21h0V25.43c.09-5.54,8.33-5.54,8.42,0v11.2A4.21,4.21,0,0,1,24.93,40.84Z" fill="#FFBEB3"></path><g class="cls-7"><path class="cls-2" d="M28.94,37.92a4.23,4.23,0,0,1-8,0C22.62,40.37,27.17,40.45,28.94,37.92Z"></path></g><path class="cls-9" d="M24.57,41.06l-3.48,2.11a.42.42,0,0,1-.58-.14h0l-3.77-6.46a.41.41,0,0,1,.15-.57h0l3.48-1.81a.41.41,0,0,1,.55.15l3.78,6.16a.42.42,0,0,1-.14.58Z" fill="#9155fd"></path><path class="cls-9" d="M25.3,41.06l3.48,2.11a.42.42,0,0,0,.58-.14h0l3.77-6.46A.41.41,0,0,0,33,36h0L29.5,34.16a.43.43,0,0,0-.56.16l-3.78,6.17A.41.41,0,0,0,25.3,41.06Z" fill="#9155fd"></path><path class="cls-8" d="M16.55,21.29a2,2,0,0,0-2.45-1.64c-1.31.28-1.31,1.5-1.11,2.5a19.9,19.9,0,0,0,1,3.32c.37.56.92,1.64,1.84,1.34.6-.21,1-1.29,1.1-2.07A16.3,16.3,0,0,0,16.55,21.29Z" fill="#FFBEB3"></path><path class="cls-8" d="M33.14,21.25a2,2,0,0,1,2.45-1.64c1.3.28,1.43,1.54,1.23,2.53,0,.06-.7,2.55-1,3.32s-1,1.75-1.94,1.36c-.59-.24-1-1.33-1.13-2.11A16.28,16.28,0,0,1,33.14,21.25Z" fill="#FFBEB3"></path><path class="cls-8" d="M34.41,13.78c0-4.33-2.68-8.68-9.79-8.68s-9.68,4.76-9.68,9.09c0,.23,0,12,1.36,14.71s5.18,5.46,8.57,5.48a9.84,9.84,0,0,0,8.59-5.48C35,25.79,34.41,13.78,34.41,13.78Z" fill="#FFBEB3"></path><path class="cls-8" d="M17.67,14.76l.19.13c.19.18-.78,2.36-.5,2.37,1.41.29,3.1-2.76,4.47-2.33,2.42.76,7,6.86,11.45,6.74,1.17-1.14,1.13-7.89,1.13-7.89,0-4.33-2.68-8.68-9.79-8.68C18.73,5.1,16,8.37,15.18,12A4.43,4.43,0,0,1,17.67,14.76Z" fill="#FFBEB3"></path><g class="cls-7"><path class="cls-2" d="M26.47,33.46c-3.39,0-7.19-2.77-8.56-5.47S16.55,13.5,16.55,13.28a9.38,9.38,0,0,1,1.75-5.6,8.52,8.52,0,0,1,.44-1,8.76,8.76,0,0,0-3.8,7.55c0,.23,0,12,1.36,14.71s5.17,5.46,8.56,5.48a9.26,9.26,0,0,0,5.26-1.7A8.84,8.84,0,0,1,26.47,33.46Z"></path></g><path class="cls-6" d="M36,12.75C35.12,8,31.23,4.52,24.86,4.56S14.34,8.49,13.51,12.91A37.1,37.1,0,0,0,13,20.53c1.08-.88,1.52-1,2-.79.36,3.89,1.2,3.84,1.2,3.84s.08-2.65.25-4.4,3-2.06,4.47-5.08c4.53-.2,7.39,5.6,12.36,5.92-.49,2.87.59,4,.59,4a16.94,16.94,0,0,1,.52-3.49A1.2,1.2,0,0,1,36.36,20,25.72,25.72,0,0,0,36,12.75Z" fill="#9C5631"></path><g class="cls-7"><path class="cls-8" d="M36,12.75C35.12,8,31.23,4.52,24.86,4.56c-5.57,0-9.46,3-10.9,6.76C15.75,8.26,19.33,6,24.2,5.93c6.36,0,10.26,3.42,11.13,8.19a29.36,29.36,0,0,1,.48,5.62,1.24,1.24,0,0,1,.55.24A25.72,25.72,0,0,0,36,12.75Z"></path></g><g class="cls-7"><path class="cls-2" d="M21,11.83c-1.43,3-6,5.87-8,6.44,0-.1,0-.22,0-.32a24.67,24.67,0,0,0,0,2.58c1.08-.88,1.52-1,2-.79.36,3.89,1.2,3.84,1.2,3.84s.08-2.65.25-4.4,3-2.06,4.47-5.08c4.51-.2,7.37,5.55,12.3,5.91C29.64,18.75,25.51,11.63,21,11.83Z"></path></g></g></svg>