<svg transform="scale(1)" xmlns="http://www.w3.org/2000/svg" viewBox="0 0 100 100" id="SdNR2DQGXi" class="pbimage_pbimage__wrapper__image__0LEis false"><title>Books</title><defs><style> .cls-1{fill:#f2f2f2;} .cls-2{fill:#13183f;opacity:0.15;} .cls-3{fill:#0099f5;} .cls-4{fill:#f0457d;} .cls-5{fill:#ffd44d;}
 .cls-5{fill:#16B1FF;}
 .cls-4{fill:#9155fd;}
 .cls-3{fill:#FFB400;}
 .cls-2{fill:#13183F;}
 .cls-1{fill:#F2F2F2;}</style></defs><g id="_0799_Books" data-name="0799_Books"><path class="cls-1" d="M81,37.43h0A6.42,6.42,0,0,0,74.54,31H15V43.84H74.54A6.42,6.42,0,0,0,81,37.43Z" fill="#F2F2F2"></path><path class="cls-2" d="M79,32.8v.06h0a6.42,6.42,0,0,1-6.41,6.42H15v4.56H74.54A6.42,6.42,0,0,0,81,37.43h0A6.38,6.38,0,0,0,79,32.8Z" fill="#13183F"></path><path class="cls-3" d="M75.68,24.86h-63a.91.91,0,0,0-.91.91h0v4.34a.9.9,0,0,0,.91.9H74.54A6.43,6.43,0,0,1,81,37.43h0a6.41,6.41,0,0,1-6.41,6.41H12.66a.91.91,0,0,0-.91.91V49.1a.91.91,0,0,0,.91.91h63A12.57,12.57,0,0,0,88.25,37.44h0A12.56,12.56,0,0,0,75.69,24.86Z" fill="#FFB400"></path><path class="cls-1" d="M19,62.57h0a6.41,6.41,0,0,1,6.42-6.41H85V69H25.46A6.41,6.41,0,0,1,19,62.57Z" fill="#F2F2F2"></path><path class="cls-2" d="M21,57.93V58h0a6.41,6.41,0,0,0,6.42,6.41H85V69H25.46A6.41,6.41,0,0,1,19,62.57h0A6.43,6.43,0,0,1,21,57.93Z" fill="#13183F"></path><path class="cls-4" d="M24.32,50h63a.91.91,0,0,1,.91.91v4.34a.91.91,0,0,1-.91.91H25.46A6.41,6.41,0,0,0,19,62.57h0A6.41,6.41,0,0,0,25.45,69H87.34a.91.91,0,0,1,.91.91h0v4.34a.91.91,0,0,1-.91.91h-63A12.57,12.57,0,0,1,11.75,62.57h0A12.57,12.57,0,0,1,24.32,50Z" fill="#9155fd"></path><rect class="cls-5" x="14.97" y="35.71" width="22.99" height="0.86" fill="#16B1FF"></rect><rect class="cls-5" x="62.18" y="60.65" width="12.54" height="0.86" fill="#16B1FF"></rect><rect class="cls-5" x="78.59" y="60.65" width="3.6" height="0.86" fill="#16B1FF"></rect></g></svg>