<svg transform="scale(1)" xmlns="http://www.w3.org/2000/svg" viewBox="0 0 100 100" id="loGzXPrUUA" class="pbimage_pbimage__wrapper__image__0LEis false"><title>Book</title><defs><style> .cls-1{fill:#f2f2f2;} .cls-2{fill:#13183f;opacity:0.15;} .cls-3{fill:#0099f5;} .cls-4{fill:#ffd44d;}
 .cls-4{fill:#FFD44D;}
 .cls-3{fill:#9155fd;}
 .cls-2{fill:#13183F;}
 .cls-1{fill:#F2F2F2;}</style></defs><g id="_0579_Book" data-name="0579_Book"><path class="cls-1" d="M74.65,7.85v8.77L49.92,29.43S53.94,11.88,74.65,7.85Z" fill="#F2F2F2"></path><path class="cls-1" d="M25.35,7.49v8.77l24.73,12.8S46.06,11.51,25.35,7.49Z" fill="#F2F2F2"></path><path class="cls-2" d="M74.58,7.8v8.77L49.85,29.38S53.88,11.83,74.58,7.8Z" fill="#13183F"></path><path class="cls-2" d="M25.29,7.44v8.77L50,29S46,11.47,25.29,7.44Z" fill="#13183F"></path><path class="cls-3" d="M92,20.24V76.66a.77.77,0,0,1-.48.71L56.76,92a.77.77,0,0,1-1-.4.81.81,0,0,1-.06-.31v-56a.76.76,0,0,1,.47-.71l34.72-15a.75.75,0,0,1,1,.39A.71.71,0,0,1,92,20.24Z" fill="#9155fd"></path><path class="cls-2" d="M61.05,90.16V32.43L54,35.21l1.3,56.09a.86.86,0,0,0,.86.85,1,1,0,0,0,.35-.07Z" fill="#13183F"></path><path class="cls-1" d="M63.1,57.6,86,47.42a.86.86,0,0,0,.5-.77V34.41a.85.85,0,0,0-1.19-.77L62.41,43.83a.84.84,0,0,0-.5.77V56.83a.84.84,0,0,0,.85.84A.83.83,0,0,0,63.1,57.6Z" fill="#F2F2F2"></path><path class="cls-4" d="M62.81,66.56a.67.67,0,0,0,.28-.06L86.75,55.11a.64.64,0,1,0-.5-1.18l0,0L62.53,65.34a.64.64,0,0,0-.3.85A.65.65,0,0,0,62.81,66.56Z" fill="#FFD44D"></path><path class="cls-4" d="M65.06,72.4a.58.58,0,0,0,.26-.06L83.6,64.11a.66.66,0,0,0,.32-.86.65.65,0,0,0-.85-.32h0L64.79,71.17a.64.64,0,0,0-.33.85.66.66,0,0,0,.59.38Z" fill="#FFD44D"></path><path class="cls-1" d="M88.18,20.7l-4.85-7.53S57.4,18.78,49.92,29.42v5.75l4.06,0Z" fill="#F2F2F2"></path><path class="cls-3" d="M8,19.88V76.29a.77.77,0,0,0,.48.71L43.24,91.6a.77.77,0,0,0,1.07-.71v-56a.76.76,0,0,0-.47-.7l-34.72-15a.78.78,0,0,0-1,.41A.67.67,0,0,0,8,19.88Z" fill="#9155fd"></path><path class="cls-2" d="M39,89.8V32.06L46,34.84l-1.3,56.09a.87.87,0,0,1-.86.86.85.85,0,0,1-.35-.08Z" fill="#13183F"></path><path class="cls-1" d="M11.82,20.34l4.85-7.53s25.93,5.6,33.41,16.25v5.75l-4.06,0Z" fill="#F2F2F2"></path><rect class="cls-3" x="43.94" y="34.14" width="11.86" height="58.38" rx="2.11" fill="#9155fd"></rect><rect class="cls-4" x="43.94" y="44.96" width="11.86" height="4.08" fill="#FFD44D"></rect><rect class="cls-4" x="43.94" y="77.62" width="11.86" height="4.08" fill="#FFD44D"></rect></g></svg>