<svg transform="scale(1)" xmlns="http://www.w3.org/2000/svg" viewBox="0 0 100 100" id="zZLoJ8GB4O" class="pbimage_pbimage__wrapper__image__0LEis false"><title>Bookshelf</title><defs><style> .cls-1{fill:#9c5631;} .cls-2, .cls-6{fill:#13183f;} .cls-2, .cls-5{opacity:0.15;} .cls-3, .cls-5{fill:#f0457d;} .cls-4{fill:#ffd44d;} .cls-7{fill:#0099f5;}
 .cls-3, .cls-5{fill:#F0457D;}
 .cls-2, .cls-6{fill:#13183F;}
 .cls-7{fill:#9155fd;}
 .cls-4{fill:#FFD44D;}
 .cls-1{fill:#9C5631;}</style></defs><g id="_0850_Bookshelf" data-name="0850_Bookshelf"><rect class="cls-1" x="19.34" y="15.73" width="61.41" height="31.16" fill="#9C5631"></rect><rect class="cls-1" x="19.24" y="46.89" width="61.41" height="32.62" fill="#9C5631"></rect><rect class="cls-2" x="19.97" y="16.38" width="61.41" height="31.16"></rect><rect class="cls-2" x="19.88" y="47.55" width="61.41" height="32.62"></rect><rect class="cls-3" x="28.11" y="21.41" width="6.54" height="23.98" rx="1.33"></rect><rect class="cls-2" x="28.11" y="26.91" width="6.54" height="2.46"></rect><rect class="cls-4" x="37.72" y="21.41" width="6.54" height="23.98" rx="1.33" transform="translate(-8.1 13.75) rotate(-17.36)" fill="#FFD44D"></rect><rect class="cls-5" x="36.15" y="27.15" width="6.54" height="2.46" transform="translate(-6.67 13.05) rotate(-17.36)"></rect><rect class="cls-3" x="50.86" y="20.61" width="6.54" height="23.98" rx="1.33"></rect><rect class="cls-4" x="50.86" y="38.88" width="6.54" height="2.46" fill="#FFD44D"></rect><rect class="cls-6" x="58.27" y="26.91" width="6.54" height="17.69" rx="1.33"></rect><rect class="cls-7" x="58.27" y="40.38" width="6.54" height="1.82" fill="#9155fd"></rect><rect class="cls-7" x="65.43" y="23.22" width="4.46" height="21.37" rx="1.33" fill="#9155fd"></rect><rect class="cls-2" x="65.43" y="39.5" width="4.46" height="2.2"></rect><rect class="cls-4" x="28.02" y="59.53" width="6.54" height="18.48" rx="1.33" fill="#FFD44D"></rect><rect class="cls-7" x="31.52" y="61.96" width="23.98" height="6.54" rx="1.33" transform="translate(-32.11 85.94) rotate(-71.61)" fill="#9155fd"></rect><rect class="cls-6" x="43.72" y="57.22" width="2.47" height="6.56" transform="translate(-26.73 83.79) rotate(-71.38)"></rect><rect class="cls-3" x="50.77" y="53.24" width="6.54" height="23.98" rx="1.33"></rect><rect class="cls-2" x="50.77" y="71.51" width="6.54" height="2.46"></rect><rect class="cls-4" x="58.17" y="59.53" width="6.54" height="17.69" rx="1.33" fill="#FFD44D"></rect><rect class="cls-5" x="58.17" y="73" width="6.54" height="1.82"></rect><rect class="cls-7" x="65.34" y="60.24" width="5.54" height="16.98" rx="1.33" fill="#9155fd"></rect><rect class="cls-4" x="65.34" y="73.17" width="5.54" height="1.75" fill="#FFD44D"></rect><rect class="cls-1" x="17.11" y="79.51" width="65.45" height="7.59" fill="#9C5631"></rect><rect class="cls-2" x="17.11" y="79.52" width="65.45" height="7.59"></rect><rect class="cls-1" x="22.31" y="82.22" width="60.25" height="4.88" fill="#9C5631"></rect><rect class="cls-1" x="17.11" y="15.73" width="4.28" height="63.79" fill="#9C5631"></rect><rect class="cls-1" x="78.51" y="15.73" width="4.28" height="63.79" fill="#9C5631"></rect><rect class="cls-1" x="15.1" y="12.9" width="69.92" height="4.5" fill="#9C5631"></rect><rect class="cls-1" x="15.1" y="43.03" width="69.92" height="4.5" fill="#9C5631"></rect><rect class="cls-1" x="14.98" y="75.94" width="69.92" height="4.5" fill="#9C5631"></rect></g></svg>